<?xml version="1.0" standalone="no"?><!DOCTYPE svg PUBLIC "-//W3C//DTD SVG 1.1//EN" "http://www.w3.org/Graphics/SVG/1.1/DTD/svg11.dtd"><svg t="1711619243227" class="icon" viewBox="0 0 1024 1024" version="1.1" xmlns="http://www.w3.org/2000/svg" p-id="3810" xmlns:xlink="http://www.w3.org/1999/xlink" width="128" height="128"><path d="M471.04 508.7744A158.4128 158.4128 0 0 1 419.84 460.8c-46.08-69.9904-29.952-180.1216 53.5552-222.72a129.5872 129.5872 0 0 1 157.44 34.304c41.9328 51.2 49.92 107.9808 23.0912 169.216a138.496 138.496 0 0 1-47.5648 60.7232 42.7008 42.7008 0 0 0-4.7104 3.9424 15.0528 15.0528 0 0 0-1.5872 2.6112c5.12 1.2288 9.6768 2.2016 14.2848 3.4816 57.344 16.4352 105.3696 46.08 138.496 97.28A237.6704 237.6704 0 0 1 788.48 702.464a699.5456 699.5456 0 0 1 7.1168 72.448c1.1264 20.7872-9.472 32.9216-31.5904 39.4752-27.2384 8.0896-55.3984 9.1136-83.5072 9.7792-108.0832 2.6624-216.2176 3.5328-324.2496-1.6896a261.12 261.12 0 0 1-50.1248-8.1408c-24.0128-6.0416-32.3072-18.9952-31.5904-43.6224a371.2 371.2 0 0 1 13.1584-94.5152c23.296-79.2064 74.1376-131.84 152.064-158.72 5.12-1.7408 9.9328-3.4304 15.0016-5.12s9.4208-1.9456 16.2816-3.584z" fill="#8CECFF" p-id="3811"></path><path d="M345.2928 221.4912C295.3216 307.2 298.0352 392.192 351.0784 476.928c-112.128 54.9888-161.7408 151.2448-175.6672 271.36-20.48 0.512-41.3184 1.3312-59.9552-8.0896-6.4-3.2256-13.8752-11.1616-14.4896-17.6128a295.3728 295.3728 0 0 1-1.6384-65.4848 230.4 230.4 0 0 1 81.4592-151.9616 208.8448 208.8448 0 0 1 76.3392-40.96l10.8032-3.3792a132.0448 132.0448 0 0 1-53.8624-179.7632c26.9312-50.1248 81.4592-74.5984 131.2256-59.5456zM737.28 476.928c54.5792-85.4528 54.3232-170.9568 5.632-258.0992a95.9488 95.9488 0 0 1 73.3184 5.888c43.8272 21.9648 67.9936 58.3168 71.68 106.752 3.7376 49.9712-14.1824 91.2384-55.7568 120.9344a143.36 143.36 0 0 1-13.5168 7.6288 45.0048 45.0048 0 0 0 6.0416 3.072c92.16 31.0272 144.0768 97.28 162.0992 190.7712 3.9936 20.48 2.9184 42.3424 2.4064 63.5392a26.7776 26.7776 0 0 1-23.6544 26.0096c-16.9472 3.2256-34.304 4.5568-52.5824 6.8096C900.096 627.8656 849.92 532.48 737.28 476.928z" fill="#FFDE73" p-id="3812"></path><path d="M807.3728 702.1568a286.72 286.72 0 0 0-42.496-111.5136c-33.1776-51.2-79.872-87.04-142.2848-109.2608a193.1776 193.1776 0 0 0 34.7648-54.4256c33.1776-75.8272 23.5008-146.7392-28.8256-210.7904a165.6832 165.6832 0 0 0-202.24-43.8784 181.248 181.248 0 0 0-93.1328 117.76A203.3664 203.3664 0 0 0 358.4 451.6352a180.5312 180.5312 0 0 0 25.6 30.72c-89.088 33.024-147.968 96.2048-174.9504 187.904a424.448 424.448 0 0 0-15.36 110.2848c-1.1264 38.7584 15.9744 62.0544 52.3776 71.168a303.1552 303.1552 0 0 0 59.8528 9.6768c64.7168 3.1232 129.4848 4.2496 190.5152 4.2496s119.552-1.1264 169.4208-2.3552c34.9696-0.8704 66.56-2.304 98.304-11.7248 44.7488-13.2608 52.5824-43.776 51.2-67.0208a791.9104 791.9104 0 0 0-7.9872-82.3808z m-56.32 105.2672c-26.4192 7.8336-53.5552 9.0624-86.3232 9.8304-98.4576 2.4064-227.9424 4.4032-356.608-1.8432a256.6144 256.6144 0 0 1-50.8928-8.3456c-14.4384-3.584-18.0224-6.9632-17.4592-25.1392a380.5696 380.5696 0 0 1 13.568-98.6112c23.6544-80.2816 73.8304-132.6592 153.6-160.0512 5.5296-1.8944 10.24-3.584 15.36-5.12 3.1232-0.8704 6.2976-1.5872 10.24-2.4576l7.168-1.6384a22.9888 22.9888 0 0 0 6.8096-42.0352 151.9104 151.9104 0 0 1-49.408-46.08 156.7232 156.7232 0 0 1-19.4048-124.3648 135.9872 135.9872 0 0 1 69.5296-88.2176 114.8928 114.8928 0 0 1 52.224-12.4416 120.9344 120.9344 0 0 1 93.3888 44.3904c40.96 50.2784 48.3328 103.6288 22.272 163.1744-11.3664 25.9072-25.6 44.1344-44.5952 57.3952a60.6208 60.6208 0 0 0-6.7072 5.4784l-0.7168 0.6144a25.6 25.6 0 0 0-5.7856 7.6288l-0.512 0.8704a23.04 23.04 0 0 0 14.4896 33.9968l5.4272 1.28c3.2256 0.7168 6.3488 1.4336 9.4208 2.304 63.3344 18.1248 109.1584 50.0736 140.0832 97.6896a241.3568 241.3568 0 0 1 35.84 93.696c4.4032 27.6992 6.3488 56.064 7.5776 77.7216 0.256 7.4752 0.6144 14.5408-18.5856 20.2752z" fill="#474747" p-id="3813"></path><path d="M321.9456 489.5744a23.0912 23.0912 0 0 0 9.4208-32.9216c-48.896-78.08-50.688-153.6-5.4272-231.68A22.784 22.784 0 0 0 327.68 204.8a23.0912 23.0912 0 0 0-14.7456-13.6192c-60.928-18.3808-125.952 10.7008-158.208 70.7584a151.1936 151.1936 0 0 0-12.3392 117.76A150.1696 150.1696 0 0 0 180.5824 445.44a228.8128 228.8128 0 0 0-53.9648 34.2016 253.0816 253.0816 0 0 0-89.3952 166.5536 314.9312 314.9312 0 0 0 1.536 70.6048c1.6384 16.0256 15.36 29.7984 27.0336 35.84a119.1936 119.1936 0 0 0 55.2448 10.8544h15.6672a22.9888 22.9888 0 0 0 22.3232-20.48c14.336-123.8528 67.6352-206.7456 162.9184-253.44z m-205.9776 227.84a68.0448 68.0448 0 0 1-29.3888-5.7344 12.3904 12.3904 0 0 1-2.2528-1.9456 264.0384 264.0384 0 0 1-1.3824-57.8048 208.2816 208.2816 0 0 1 73.5232-137.216 186.624 186.624 0 0 1 67.9936-36.6592l6.7584-2.0992 4.3008-1.3312a23.0912 23.0912 0 0 0 4.352-42.1888 108.9536 108.9536 0 0 1-44.7488-148.48c16.4864-30.72 45.1584-49.6128 75.3664-51.712C236.544 307.8656 239.6672 384 279.9104 459.776c-91.8016 52.6848-145.664 137.3696-163.9424 257.6384zM963.9424 636.8768c-17.8688-92.7232-66.2528-158.1056-143.9744-194.56 33.536-32.3584 49.2032-75.1104 45.4144-124.928-4.2496-56.6784-33.3824-100.1472-84.2752-125.6448A118.784 118.784 0 0 0 690.7904 184.32a22.9888 22.9888 0 0 0-13.4144 33.28c45.4656 81.408 43.8784 158.0544-5.12 234.4448a23.04 23.04 0 0 0 9.2672 33.0752c96.8192 47.616 150.1184 131.0208 162.816 255.0272a23.0912 23.0912 0 0 0 22.9376 20.48 26.88 26.88 0 0 0 2.8672 0c5.4272-0.7168 10.8544-1.28 16.128-1.8944 12.3904-1.3312 25.1904-2.7648 37.888-5.12 25.1392-4.8128 41.7792-23.7056 42.3424-48.0768v-6.144a285.44 285.44 0 0 0-2.56-62.5152z m-43.1104 61.1328v6.2464c0 1.3312 0 3.0208-5.12 3.9424-9.0112 1.7408-18.3808 2.8672-28.16 3.9936-17.3056-119.3984-71.0656-203.776-163.84-256.9216 40.2432-74.752 43.0592-152.064 8.5504-230.4a72.96 72.96 0 0 1 28.0064 7.8848c36.608 18.3296 55.9104 47.104 58.9824 87.9104 3.2256 43.0592-11.8784 75.9296-46.08 100.4544a67.584 67.584 0 0 1-5.9392 3.3792l-5.4272 2.8672a23.0912 23.0912 0 0 0 0.6656 40.6016l1.536 0.8192a42.7008 42.7008 0 0 0 7.7312 3.6352c81.664 27.4432 129.6896 84.1216 146.8416 173.2608a245.76 245.76 0 0 1 2.2528 52.3264z" fill="#474747" p-id="3814"></path></svg>