<?xml version="1.0" standalone="no"?><!DOCTYPE svg PUBLIC "-//W3C//DTD SVG 1.1//EN" "http://www.w3.org/Graphics/SVG/1.1/DTD/svg11.dtd"><svg t="1712825020636" class="icon" viewBox="0 0 1024 1024" version="1.1" xmlns="http://www.w3.org/2000/svg" p-id="2585" xmlns:xlink="http://www.w3.org/1999/xlink" width="128" height="128"><path d="M780.0832 371.3536H297.984a121.5488 121.5488 0 0 0-121.3952 121.3952v301.1072a121.5488 121.5488 0 0 0 121.3952 121.4464h482.0992a121.6 121.6 0 0 0 121.4464-121.4464V492.7488a121.5488 121.5488 0 0 0-121.4464-121.3952z" fill="#8CECFF" p-id="2586"></path><path d="M521.2672 417.792a147.968 147.968 0 0 0-95.8976 260.7104v46.08a95.8976 95.8976 0 1 0 191.7952 0v-46.08a147.968 147.968 0 0 0-95.8976-260.7104z" fill="#FFDE73" p-id="2587"></path><path d="M757.76 300.5952h-2.048A248.6784 248.6784 0 0 0 508.3648 72.704h-6.912A248.6784 248.6784 0 0 0 253.952 300.5952a162.8672 162.8672 0 0 0-162.4064 162.7136v315.392a162.8672 162.8672 0 0 0 162.6624 162.7136H757.76a162.8672 162.8672 0 0 0 162.6624-162.7136v-315.392A162.8672 162.8672 0 0 0 757.76 300.5952zM501.4528 118.784h6.912a202.6496 202.6496 0 0 1 201.3184 181.8112h-409.6A202.6496 202.6496 0 0 1 501.4528 118.784z m373.0432 659.9168a116.736 116.736 0 0 1-116.736 116.6336H254.208a116.736 116.736 0 0 1-116.5824-116.6336v-315.392a116.736 116.736 0 0 1 116.5824-116.6336h15.7696a21.6576 21.6576 0 0 0 6.0928 0.9216h457.6768a22.3232 22.3232 0 0 0 6.144-0.9216H757.76a116.736 116.736 0 0 1 116.736 116.6336z" fill="#474747" p-id="2588"></path><path d="M505.7024 425.3696A133.9904 133.9904 0 0 0 419.84 662.3232V706.56a85.8112 85.8112 0 1 0 171.5712 0v-44.032a133.9904 133.9904 0 0 0-85.7088-237.1584z m49.664 206.5408a23.04 23.04 0 0 0-10.24 18.9952V706.56A39.7312 39.7312 0 1 1 465.92 706.56v-55.6544a23.04 23.04 0 0 0-10.24-18.9952 87.9616 87.9616 0 1 1 99.3792 0z" fill="#474747" p-id="2589"></path></svg>