<?xml version="1.0" standalone="no"?><!DOCTYPE svg PUBLIC "-//W3C//DTD SVG 1.1//EN" "http://www.w3.org/Graphics/SVG/1.1/DTD/svg11.dtd"><svg t="1710493295513" class="icon" viewBox="0 0 1024 1024" version="1.1" xmlns="http://www.w3.org/2000/svg" p-id="2620" xmlns:xlink="http://www.w3.org/1999/xlink" width="128" height="128"><path d="M821.8624 213.4016H278.8864c-67.4816 0-98.3552 30.72-98.4064 97.28q-0.3072 243.1488 0 486.4c0 67.3792 30.72 97.8432 98.3552 97.9456q271.6672 0.3072 543.2832 0c65.6384 0 97.28-31.744 97.28-96.6656V309.6576c-0.3584-65.024-31.6928-96.1024-97.536-96.256z m-496.9472 50.2272a83.6096 83.6096 0 1 1-83.5584 83.6096 83.6096 83.6096 0 0 1 83.5584-83.6096zM778.24 747.52H250.88a14.9504 14.9504 0 0 1-11.9808-23.9616c30.72-40.4992 91.4944-121.2928 116.7872-154.9312a15.0016 15.0016 0 0 1 23.5008-0.5632c20.48 24.4224 60.928 73.1136 81.1008 97.28a14.9504 14.9504 0 0 0 23.2448-0.3584c27.2896-34.8672 96.1024-122.88 123.7504-158.3104a14.9504 14.9504 0 0 1 23.7568 0c32.4608 42.9568 121.344 165.12 159.0272 217.0368A15.0016 15.0016 0 0 1 778.24 747.52z" fill="#8CECFF" p-id="2621"></path><path d="M835.6352 711.2704c-46.08-61.44-132.5056-175.6672-171.3152-226.7136-10.24-13.7728-30.72-11.264-37.6832-1.7408-30.72 43.7248-105.0624 147.8144-135.5264 190.6688a15.7696 15.7696 0 0 1-26.0096 0.4608c-22.528-29.6448-45.2608-70.6048-68.0448-100.5056a15.7696 15.7696 0 0 0-26.2144 0.7168l-130.56 190.5152c-8.3456 12.1344-0.4608 29.4912 13.3632 29.4912h531.0976c75.776-0.1536 71.2192-58.9824 50.8928-82.8928z" fill="#FFDE73" p-id="2622"></path><path d="M335.3088 357.9392m-95.6416 0a95.6416 95.6416 0 1 0 191.2832 0 95.6416 95.6416 0 1 0-191.2832 0Z" fill="#FFDE73" p-id="2623"></path><path d="M811.6736 122.88H215.7568c-86.784 0-130.8672 43.8272-130.9696 129.8944v533.4528c0 86.4768 44.1344 130.3552 130.9184 130.4576h595.968c84.7872 0 129.6384-44.7488 129.6896-129.0752V251.4944C941.2096 167.3728 896.4096 122.88 811.6736 122.88z m83.5072 664.576c0 58.88-24.2688 82.8928-83.6608 82.9952H215.6544c-61.7984 0-84.7872-22.9376-84.8896-84.4288V252.672C130.8672 192.4096 154.6752 168.96 215.7056 168.96h595.8656c59.3408 0 83.5584 24.0128 83.6096 82.5856q0.1024 267.8784 0 535.9104z" fill="#474747" p-id="2624"></path><path d="M326.4 439.7568A93.6448 93.6448 0 1 0 232.7552 346.112a93.7472 93.7472 0 0 0 93.6448 93.6448z m0-141.2096a47.5648 47.5648 0 1 1-47.5648 47.5648 47.616 47.616 0 0 1 47.5648-47.5648zM645.12 499.2512a37.5808 37.5808 0 0 0-59.5968-0.4096c-24.832 31.8976-83.9168 107.52-113.5616 145.2544L399.9232 558.08a37.0688 37.0688 0 0 0-29.7472-13.568 37.5296 37.5296 0 0 0-29.1328 14.9504c-24.5248 32.6144-83.6608 111.0016-113.3056 150.3232a37.5808 37.5808 0 0 0 30.0032 60.16h511.4368a37.5808 37.5808 0 0 0 30.4128-59.648c-35.9424-49.8176-122.9312-169.1648-154.4704-211.0464zM264.4992 737.28z m10.24-13.6704l96.6144-128 71.68 86.0672A37.5808 37.5808 0 0 0 501.76 680.96c24.4224-31.232 83.2512-106.3936 113.2544-144.896 32.512 43.4688 100.4032 136.704 137.5744 187.8016z" fill="#474747" p-id="2625"></path></svg>