<?xml version="1.0" standalone="no"?><!DOCTYPE svg PUBLIC "-//W3C//DTD SVG 1.1//EN" "http://www.w3.org/Graphics/SVG/1.1/DTD/svg11.dtd"><svg t="1712825448904" class="icon" viewBox="0 0 1024 1024" version="1.1" xmlns="http://www.w3.org/2000/svg" p-id="2923" xmlns:xlink="http://www.w3.org/1999/xlink" width="128" height="128"><path d="M821.9136 229.7344H278.6816A103.8336 103.8336 0 0 0 174.4384 332.8v474.1632a103.8336 103.8336 0 0 0 104.2432 103.168h543.232a103.8848 103.8848 0 0 0 104.2944-103.168V332.8a103.8848 103.8848 0 0 0-104.2944-103.0656z" fill="#8CECFF" p-id="2924"></path><path d="M653.7728 634.88h-82.688v-28.0064h82.688a35.84 35.84 0 0 0 0-71.68H604.16l75.9296-122.3168a35.84 35.84 0 1 0-60.928-37.7856l-83.9168 135.168L451.3792 378.88a35.84 35.84 0 0 0-60.416 38.6048l75.264 117.76H416.768a35.84 35.84 0 0 0 0 71.68h82.6368V634.88H416.768a35.84 35.84 0 0 0 0 71.68h82.6368v25.6a35.84 35.84 0 0 0 71.68 0v-25.6h82.688a35.84 35.84 0 1 0 0-71.68z" fill="#FFDE73" p-id="2925"></path><path d="M633.2928 632.4736H537.6v-53.6064h95.488a23.04 23.04 0 0 0 0-46.08h-72.5504l88.064-141.824a23.04 23.04 0 1 0-39.3216-24.32l-94.5152 152.2176-94.6688-148.224a23.04 23.04 0 1 0-38.8096 24.832l87.8592 137.3184H396.288a23.04 23.04 0 0 0 0 46.08H491.52v53.6064H396.288a23.04 23.04 0 0 0 0 46.08H491.52v38.5024a23.04 23.04 0 0 0 46.08 0v-38.5024h95.488a23.04 23.04 0 0 0 0-46.08z" fill="#474747" p-id="2926"></path><path d="M787.3024 933.4272H241.5104a164.5568 164.5568 0 0 1-164.4032-164.352V314.0608a164.5568 164.5568 0 0 1 164.4032-164.352h545.792a164.5568 164.5568 0 0 1 164.4032 164.352v455.0144a164.5568 164.5568 0 0 1-164.4032 164.352zM241.5104 195.7888a118.4256 118.4256 0 0 0-118.3232 118.272v455.0144a118.4256 118.4256 0 0 0 118.3232 118.272h545.792a118.4256 118.4256 0 0 0 118.3232-118.272V314.0608a118.4256 118.4256 0 0 0-118.3232-118.272z" fill="#474747" p-id="2927"></path><path d="M368.64 283.1872a35.84 35.84 0 0 1-35.84-35.84V116.3776a35.84 35.84 0 0 1 71.68 0v130.9696a35.84 35.84 0 0 1-35.84 35.84zM685.6192 283.1872a35.84 35.84 0 0 1-35.84-35.84V116.3776a35.84 35.84 0 1 1 71.68 0v130.9696a35.84 35.84 0 0 1-35.84 35.84z" fill="#FFDE73" p-id="2928"></path><path d="M358.4 265.2672a22.9888 22.9888 0 0 1-23.04-23.04V111.2576a23.04 23.04 0 0 1 46.08 0v130.9696a22.9888 22.9888 0 0 1-23.04 23.04zM675.3792 265.2672a23.04 23.04 0 0 1-23.04-23.04V111.2576a23.04 23.04 0 1 1 46.08 0v130.9696a22.9888 22.9888 0 0 1-23.04 23.04z" fill="#474747" p-id="2929"></path></svg>