<?xml version="1.0" standalone="no"?><!DOCTYPE svg PUBLIC "-//W3C//DTD SVG 1.1//EN" "http://www.w3.org/Graphics/SVG/1.1/DTD/svg11.dtd"><svg t="1711613602964" class="icon" viewBox="0 0 1024 1024" version="1.1" xmlns="http://www.w3.org/2000/svg" p-id="2631" xmlns:xlink="http://www.w3.org/1999/xlink" width="128" height="128"><path d="M585.1648 905.1648a35.84 35.84 0 0 1-35.84-35.84v-283.4432a35.84 35.84 0 0 1 71.68 0v283.4432a35.84 35.84 0 0 1-35.84 35.84zM728.9344 905.1648a35.84 35.84 0 0 1-35.84-35.84v-283.4432a35.84 35.84 0 0 1 71.68 0v283.4432a35.84 35.84 0 0 1-35.84 35.84zM875.52 905.1648a35.84 35.84 0 0 1-35.84-35.84v-283.4432a35.84 35.84 0 0 1 71.68 0v283.4432a35.84 35.84 0 0 1-35.84 35.84z" fill="#FFDE73" p-id="2632"></path><path d="M234.4448 481.28h174.7456a64 64 0 0 0 64-64V242.0736a64 64 0 0 0-64-64H221.5424a51.2 51.2 0 0 0-51.2 51.2v187.904A63.9488 63.9488 0 0 0 234.4448 481.28zM860.16 178.0736h-187.648a51.2 51.2 0 0 0-51.2 51.2v187.904A64 64 0 0 0 685.4144 481.28H860.16a64 64 0 0 0 64-64V242.0736a64 64 0 0 0-64-64zM410.9824 619.1104H223.3344a51.2 51.2 0 0 0-51.2 51.2v188.0064a64 64 0 0 0 64 64h174.848a64 64 0 0 0 64-64v-175.104a64 64 0 0 0-64-64.1024z" fill="#8CECFF" p-id="2633"></path><path d="M390.3488 105.0624H165.632A70.4512 70.4512 0 0 0 95.232 175.4624v224.768a70.4512 70.4512 0 0 0 70.4 70.4h224.7168A70.5024 70.5024 0 0 0 460.8 400.2304v-224.768a70.4512 70.4512 0 0 0-70.4512-70.4zM414.72 400.2304a24.3712 24.3712 0 0 1-24.3712 24.32H165.632a24.32 24.32 0 0 1-24.32-24.32v-224.768a24.32 24.32 0 0 1 24.32-24.32h224.7168A24.3712 24.3712 0 0 1 414.72 175.4624zM390.3488 546.6112H165.632a70.4512 70.4512 0 0 0-70.4 70.4v224.768a70.4512 70.4512 0 0 0 70.4 70.4h224.7168A70.5024 70.5024 0 0 0 460.8 841.7792v-224.768a70.5024 70.5024 0 0 0-70.4512-70.4zM414.72 841.7792a24.3712 24.3712 0 0 1-24.3712 24.32H165.632a24.32 24.32 0 0 1-24.32-24.32v-224.768a24.32 24.32 0 0 1 24.32-24.32h224.7168a24.3712 24.3712 0 0 1 24.3712 24.32zM841.6256 105.0624h-224.768a70.4512 70.4512 0 0 0-70.4 70.4v224.768a70.5024 70.5024 0 0 0 70.4 70.4h224.768a70.5024 70.5024 0 0 0 70.4-70.4v-224.768a70.4512 70.4512 0 0 0-70.4-70.4z m24.32 295.168a24.32 24.32 0 0 1-24.32 24.32h-224.768a24.32 24.32 0 0 1-24.32-24.32v-224.768a24.32 24.32 0 0 1 24.32-24.32h224.768a24.32 24.32 0 0 1 24.32 24.32zM571.4944 545.5872a23.04 23.04 0 0 0-23.04 23.04v317.44a23.04 23.04 0 0 0 46.08 0v-317.44a22.9888 22.9888 0 0 0-23.04-23.04zM719.0528 545.5872a22.9888 22.9888 0 0 0-23.04 23.04v317.44a23.04 23.04 0 0 0 46.08 0v-317.44a23.04 23.04 0 0 0-23.04-23.04zM866.56 545.5872a22.9888 22.9888 0 0 0-23.04 23.04v317.44a23.04 23.04 0 0 0 46.08 0v-317.44a22.9888 22.9888 0 0 0-23.04-23.04z" fill="#474747" p-id="2634"></path></svg>