<?xml version="1.0" standalone="no"?><!DOCTYPE svg PUBLIC "-//W3C//DTD SVG 1.1//EN" "http://www.w3.org/Graphics/SVG/1.1/DTD/svg11.dtd"><svg t="1712825164587" class="icon" viewBox="0 0 1024 1024" version="1.1" xmlns="http://www.w3.org/2000/svg" p-id="2754" xmlns:xlink="http://www.w3.org/1999/xlink" width="128" height="128"><path d="M164.3008 167.9872m163.3792 0l416.5632 0q163.3792 0 163.3792 163.3792l0 424.448q0 163.3792-163.3792 163.3792l-416.5632 0q-163.3792 0-163.3792-163.3792l0-424.448q0-163.3792 163.3792-163.3792Z" fill="#8CECFF" p-id="2755"></path><path d="M683.4176 794.1632H354.7648a35.84 35.84 0 0 1 0-71.68h328.6528a35.84 35.84 0 1 1 0 71.68zM550.7072 297.216l44.3392 89.8048a21.7088 21.7088 0 0 0 16.384 11.8784l99.072 14.3872a21.76 21.76 0 0 1 12.0832 37.2736l-71.68 69.888a21.7088 21.7088 0 0 0-6.2464 19.2512l16.896 98.7136a21.7088 21.7088 0 0 1-31.5392 22.9376L541.3376 614.4a21.4528 21.4528 0 0 0-20.48 0l-88.6784 46.592a21.76 21.76 0 0 1-31.5392-22.9376l16.9472-98.7136a21.76 21.76 0 0 0-6.2976-19.2512L339.8656 450.56a21.76 21.76 0 0 1 12.032-37.12l99.1232-14.3872a21.8112 21.8112 0 0 0 16.384-11.8784l44.288-89.8048a21.76 21.76 0 0 1 39.0144-0.1536z" fill="#FFDE73" p-id="2756"></path><path d="M673.1776 725.0432H344.5248a23.04 23.04 0 0 0 0 46.08h328.6528a23.04 23.04 0 1 0 0-46.08zM698.0608 381.44l-117.76-17.152L527.36 257.28a23.0912 23.0912 0 0 0-41.3184 0L433.152 364.288 315.0848 381.44A23.04 23.04 0 0 0 302.08 420.7104l85.6576 83.3024-20.1728 117.76a23.04 23.04 0 0 0 33.4336 24.2688l105.5744-55.7056 105.5744 55.5008a23.04 23.04 0 0 0 33.4336-24.2688l-20.1728-117.76 85.4528-83.3024a22.9888 22.9888 0 0 0-12.8-39.2704z m-113.4592 97.9968a23.0912 23.0912 0 0 0-6.656 20.48l14.336 83.5072-75.1616-39.5264a23.4496 23.4496 0 0 0-10.752-2.6112 23.0912 23.0912 0 0 0-10.7008 2.6112l-75.008 39.424L435.2 499.8144a23.0912 23.0912 0 0 0-6.6048-20.48L367.9232 420.3008l83.8144-12.1856a22.9888 22.9888 0 0 0 17.3568-12.5952l37.4784-75.9808 37.4784 75.9808a23.0912 23.0912 0 0 0 17.3568 12.5952L645.12 420.3008z" fill="#474747" p-id="2757"></path><path d="M729.344 87.04H281.6a201.5744 201.5744 0 0 0-201.3696 201.5744v452.3008A201.5744 201.5744 0 0 0 281.6 942.08h447.7952a201.5744 201.5744 0 0 0 201.3184-201.3184V288.6144A201.5744 201.5744 0 0 0 729.344 87.04z m155.2384 653.6704A155.392 155.392 0 0 1 729.344 896H281.6a155.392 155.392 0 0 1-155.2384-155.2384V288.6144A155.4432 155.4432 0 0 1 281.6 133.12h447.7952a155.4432 155.4432 0 0 1 155.2384 155.2896z" fill="#474747" p-id="2758"></path></svg>