<?xml version="1.0" standalone="no"?><!DOCTYPE svg PUBLIC "-//W3C//DTD SVG 1.1//EN" "http://www.w3.org/Graphics/SVG/1.1/DTD/svg11.dtd"><svg t="1711619228570" class="icon" viewBox="0 0 1024 1024" version="1.1" xmlns="http://www.w3.org/2000/svg" p-id="3639" xmlns:xlink="http://www.w3.org/1999/xlink" width="128" height="128"><path d="M780.8 192.1024H299.2128a121.8048 121.8048 0 0 0-121.4976 121.4464v291.072a146.2272 146.2272 0 0 0 145.8176 145.7664h17.92l112.64 108.8512a91.2896 91.2896 0 0 0 125.3888 1.3312l118.8352-110.1824h87.5008a158.4128 158.4128 0 0 0 158.72-158.4128V355.584a163.84 163.84 0 0 0-163.7376-163.4816z" fill="#8CECFF" p-id="3640"></path><path d="M741.4272 333.3632H325.3248a35.84 35.84 0 0 0 0 71.68h416.1024a35.84 35.84 0 0 0 0-71.68zM567.3472 526.6944H330.4448a35.84 35.84 0 0 0 0 71.68h236.9024a35.84 35.84 0 0 0 0-71.68z" fill="#FFDE73" p-id="3641"></path><path d="M517.5808 896.3072A110.4896 110.4896 0 0 1 440.32 865.28l-102.4-98.6624H259.7376a176.3328 176.3328 0 0 1-176.128-176.128V298.7008a176.3328 176.3328 0 0 1 176.128-176.128h517.12a176.3328 176.3328 0 0 1 176.128 176.128v291.84a176.3328 176.3328 0 0 1-176.128 176.128H701.44l-108.1856 100.3008a110.8992 110.8992 0 0 1-75.6736 29.3376zM259.7376 168.6528a130.2016 130.2016 0 0 0-130.048 130.048v291.84a130.2016 130.2016 0 0 0 130.048 130.048h87.7568A23.04 23.04 0 0 1 363.52 727.04l108.8 105.1648a65.1776 65.1776 0 0 0 89.4976 0.9728l114.8416-106.4448a22.9888 22.9888 0 0 1 15.6672-6.144h84.5312a130.2016 130.2016 0 0 0 130.048-130.048v-291.84a130.2016 130.2016 0 0 0-130.048-130.048z" fill="#474747" p-id="3642"></path><path d="M731.4944 372.4288H315.3408a23.04 23.04 0 1 1 0-46.08h416.1536a23.04 23.04 0 1 1 0 46.08zM557.3632 565.76H320.4608a23.04 23.04 0 0 1 0-46.08h236.9024a23.04 23.04 0 1 1 0 46.08z" fill="#474747" p-id="3643"></path></svg>