<?xml version="1.0" standalone="no"?><!DOCTYPE svg PUBLIC "-//W3C//DTD SVG 1.1//EN" "http://www.w3.org/Graphics/SVG/1.1/DTD/svg11.dtd"><svg t="1711540963036" class="icon" viewBox="0 0 1024 1024" version="1.1" xmlns="http://www.w3.org/2000/svg" p-id="36120" xmlns:xlink="http://www.w3.org/1999/xlink" width="128" height="128"><path d="M533.797 77.913c25.044 44.986 40.348 105.74 40.348 172.986 0 138.666-64.928 251.362-145.16 251.362-62.608 0-115.478-68.638-135.884-164.638-72.347 102.493-133.565 224-133.565 344.116 0 178.55 157.681 323.71 352.464 323.71s352.464-144.695 352.464-323.71c0-324.638-317.681-593.16-330.667-603.826z" fill="#FFD1A4" p-id="36121"></path><path d="M514.783 928c-118.725 0-153.971-91.826-147.942-128.928 12.058-73.739 85.333-85.797 140.521-85.797 131.247 0 184.116-136.811 187.363-172.058-0.464 0 46.84 386.783-179.942 386.783z" fill="#FFD1A4" p-id="36122"></path><path d="M512 1024c-204.522 0-371.014-153.507-371.014-342.26 0-106.668 45.913-226.32 137.275-354.783l24.58-34.32 8.811 41.276c19.015 89.971 66.319 150.26 117.797 150.26 68.638 0 126.609-106.666 126.609-232.81 0-61.218-13.45-119.653-38.029-164.175L469.797 0l76.058 64c9.275 7.884 92.29 78.84 172.986 187.362C827.826 397.913 883.014 542.61 883.014 681.74 883.014 870.493 716.522 1024 512 1024zM285.681 381.681c-71.42 109.45-107.594 210.087-107.594 300.058 0 168.348 149.797 305.16 333.913 305.16s333.913-136.812 333.913-305.16c0-233.739-172.522-440.58-265.74-535.188 8.349 32.463 12.523 68.174 12.523 104.348 0 151.188-71.884 269.913-163.71 269.913-61.218 0-115.015-53.334-143.305-139.13z" fill="#F4900B" p-id="36123"></path><path d="M514.783 928c-118.725 0-153.971-91.826-147.942-128.928 12.058-73.739 85.333-85.797 140.521-85.797 131.247 0 184.116-136.811 187.363-172.058-0.464 0 46.84 386.783-179.942 386.783z" fill="#FFFFFF" p-id="36124"></path></svg>