<?xml version="1.0" standalone="no"?><!DOCTYPE svg PUBLIC "-//W3C//DTD SVG 1.1//EN" "http://www.w3.org/Graphics/SVG/1.1/DTD/svg11.dtd"><svg t="1711618384010" class="icon" viewBox="0 0 1024 1024" version="1.1" xmlns="http://www.w3.org/2000/svg" p-id="41230" xmlns:xlink="http://www.w3.org/1999/xlink" width="128" height="128"><path d="M0 0h1024v1024H0V0z" fill="#202425" opacity=".01" p-id="41231"></path><path d="M836.1984 739.669333A441.7536 441.7536 0 0 0 921.6 477.866667c0-245.077333-198.656-443.733333-443.733333-443.733334S34.133333 232.789333 34.133333 477.866667s198.656 443.733333 443.733334 443.733333c97.8944 0 188.416-31.709867 261.802666-85.4016l110.250667 110.250667a68.266667 68.266667 0 1 0 96.529067-96.5632l-110.250667-110.250667z" fill="#FF7744" p-id="41232"></path><path d="M785.066667 477.866667a307.2 307.2 0 1 1-614.4 0 307.2 307.2 0 0 1 614.4 0z" fill="#FFAA44" p-id="41233"></path><path d="M273.066667 529.066667A51.2 51.2 0 0 0 324.266667 477.866667 153.6 153.6 0 0 1 477.866667 324.266667a51.2 51.2 0 0 0 0-102.4A256 256 0 0 0 221.866667 477.866667 51.2 51.2 0 0 0 273.066667 529.066667z" fill="#FFFFFF" p-id="41234"></path></svg>