<?xml version="1.0" standalone="no"?><!DOCTYPE svg PUBLIC "-//W3C//DTD SVG 1.1//EN" "http://www.w3.org/Graphics/SVG/1.1/DTD/svg11.dtd"><svg t="1711356256868" class="icon" viewBox="0 0 1027 1024" version="1.1" xmlns="http://www.w3.org/2000/svg" p-id="23130" xmlns:xlink="http://www.w3.org/1999/xlink" width="128.375" height="128"><path d="M582.330848 511.939207a24.637074 24.637074 0 0 0-23.250572 24.210459 24.210458 24.210458 0 0 0 23.250572 21.3308c17.491256 0 30.076428-10.6654 30.076429-21.3308A26.983462 26.983462 0 0 0 582.864118 511.939207z m-76.684227-112.200009a27.73004 27.73004 0 0 0 29.969775-25.383653v-3.73289A27.410078 27.410078 0 0 0 510.339397 341.292805h-4.692776a31.356276 31.356276 0 0 0-34.022626 28.26331v0.959886a31.9962 31.9962 0 0 0 34.022626 29.223197zM514.818865 1.386502a511.299283 511.299283 0 1 0 511.299283 511.192629A511.299283 511.299283 0 0 0 514.818865 1.386502z m-96.628525 640.777241A274.420746 274.420746 0 0 1 335.746797 629.258609l-84.150007 42.6616 24.210458-71.564835A192.617127 192.617127 0 0 1 181.311803 441.227604c0-113.26655 106.654002-199.869599 236.558575-199.869599C533.270008 241.358005 635.657849 309.296604 655.602147 406.245092a114.439744 114.439744 0 0 0-22.503994-2.453042 193.470359 193.470359 0 0 0-200.722831 186.111232v1.279848a198.269789 198.269789 0 0 0 6.719202 50.020727 193.790321 193.790321 0 0 1-20.79753 0.853232z m347.372083 81.803619l16.638024 59.939549-63.245823-35.72909a369.662769 369.662769 0 0 1-71.564835 12.478518A186.644503 186.644503 0 0 1 447.946806 589.05005a186.644503 186.644503 0 0 1 199.442983-171.606288c105.694115 0 200.722831 76.684227 200.722831 171.606288a176.405718 176.405718 0 0 1-82.443543 134.917312zM341.292805 341.292805a32.956086 32.956086 0 0 0-35.835745 29.116542A33.489356 33.489356 0 0 0 341.292805 399.52589a28.583272 28.583272 0 0 0 29.969774-27.303425v-1.813118A28.156656 28.156656 0 0 0 343.852501 341.292805z m372.222465 170.646402a23.99715 23.99715 0 0 0-23.357226 24.210459A25.810268 25.810268 0 1 0 723.434092 511.939207a21.3308 21.3308 0 0 0-10.6654 0z" fill="#1AAB37" p-id="23131"></path></svg>
