<?xml version="1.0" standalone="no"?><!DOCTYPE svg PUBLIC "-//W3C//DTD SVG 1.1//EN" "http://www.w3.org/Graphics/SVG/1.1/DTD/svg11.dtd"><svg t="1711613591349" class="icon" viewBox="0 0 1024 1024" version="1.1" xmlns="http://www.w3.org/2000/svg" p-id="2463" xmlns:xlink="http://www.w3.org/1999/xlink" width="128" height="128"><path d="M357.9904 318.1568a175.5648 173.2096 0 1 0 351.1296 0 175.5648 173.2096 0 1 0-351.1296 0Z" fill="#FFDE73" p-id="2464"></path><path d="M458.1376 535.5008h158.4128a284.0576 284.0576 0 0 1 284.0576 284.0576v25.6a63.5392 63.5392 0 0 1-63.5392 63.5392H237.6192A63.5392 63.5392 0 0 1 174.08 844.8v-25.6a284.0576 284.0576 0 0 1 284.0576-283.6992z" fill="#8CECFF" p-id="2465"></path><path d="M663.4496 814.6944H370.176a35.84 35.84 0 0 1 0-71.68h293.2736a35.84 35.84 0 1 1 0 71.68z" fill="#FFDE73" p-id="2466"></path><path d="M641.536 472.4736A216.8832 216.8832 0 0 0 732.16 296.6016c0-120.1152-98.9184-217.856-220.4672-217.856S291.2256 176.4864 291.2256 296.6016a216.8832 216.8832 0 0 0 90.624 175.872 335.104 335.104 0 0 0-282.1632 330.4448v14.5408a114.2272 114.2272 0 0 0 114.0736 114.0736h595.8656a114.2272 114.2272 0 0 0 114.0736-114.0736v-14.5408a335.104 335.104 0 0 0-282.1632-330.4448zM337.3056 296.6016c0-94.72 78.2336-171.776 174.3872-171.776S686.08 201.8816 686.08 296.6016s-78.2336 171.7248-174.3872 171.7248-174.3872-77.056-174.3872-171.7248z m540.3136 520.8576a68.096 68.096 0 0 1-67.9936 67.9936H213.76a68.096 68.096 0 0 1-67.9936-67.9936v-14.5408a288.8704 288.8704 0 0 1 288.512-288.512h154.8288a288.8704 288.8704 0 0 1 288.512 288.512z" fill="#474747" p-id="2467"></path><path d="M658.3296 745.5744H365.056a23.04 23.04 0 0 0 0 46.08h293.2736a23.04 23.04 0 1 0 0-46.08z" fill="#474747" p-id="2468"></path></svg>