<?xml version="1.0" standalone="no"?><!DOCTYPE svg PUBLIC "-//W3C//DTD SVG 1.1//EN" "http://www.w3.org/Graphics/SVG/1.1/DTD/svg11.dtd"><svg t="1711617653246" class="icon" viewBox="0 0 1024 1024" version="1.1" xmlns="http://www.w3.org/2000/svg" p-id="2630" xmlns:xlink="http://www.w3.org/1999/xlink" width="128" height="128"><path d="M853.3504 659.3536c-10.9056-9.3184-22.272-18.1248-34.2528-27.7504a318.1056 318.1056 0 0 1-46.4384 81.92 300.9024 300.9024 0 0 1-78.0288 69.3248 24.32 24.32 0 0 1-8.192 1.792c0.4608-3.072-20.1728-5.4784-18.5344-7.5776 63.9488-81.4592 81.3056-173.4656 54.8864-266.8544a268.0832 268.0832 0 0 0-48.5888-94.0032c-5.12-6.5536-28.2624-37.376-35.0208-42.752a323.3792 323.3792 0 0 0-9.4208 42.3424c-17.5616 40.1408-26.2144 55.5008-62.208 71.936a342.272 342.272 0 0 1-108.544 27.4944c-29.2864 3.0208-67.2768 9.0112-96.1024 14.336-79.1552 16.0256-69.7344 55.3472-68.4544 93.3376 2.4064 69.5296 33.792 126.0032 85.6064 170.6496a118.6816 118.6816 0 0 1 10.5472 8.96 23.6032 23.6032 0 0 1 2.9696 7.7312c-2.7136 0-5.9904 1.1264-8.0896 0a561.5616 561.5616 0 0 1-55.04-30.72c-46.08-32-49.5104-81.4592-71.68-133.5296-0.9216-2.0992-2.0992-4.0448-3.6864-7.0656-12.0832 12.9024-24.9856 23.04-42.3424 26.112A67.9936 67.9936 0 0 1 131.7888 599.04c-0.7168-43.7248-0.5632-87.4496 0-131.1232a66.56 66.56 0 0 1 47.9232-63.7952 14.5408 14.5408 0 0 0 10.9568-11.4688c30.208-109.0048 95.744-188.8768 196.3008-238.2336a344.32 344.32 0 0 1 200.0896-31.8464A364.0832 364.0832 0 0 1 890.88 389.5296a19.3536 19.3536 0 0 0 14.2336 15.36 67.8912 67.8912 0 0 1 46.08 64.4608c0.6656 42.496 0.9728 85.0944 0 127.6416-0.7168 27.8016-13.8752 48.64-39.168 62.208-17.408 9.3184-54.0672 3.6352-58.6752 0.1536z" fill="#8CECFF" p-id="2631"></path><path d="M799.0272 408.576a35.84 35.84 0 0 1-33.4336-22.8864c-2.8672-7.2704-72.8064-179.5584-247.2448-179.5584s-247.7568 165.0176-250.88 172.032a35.84 35.84 0 0 1-65.8944-27.9552c3.6864-8.8064 93.44-215.7568 316.7744-215.7568s310.4768 216.064 314.0608 225.28a35.84 35.84 0 0 1-33.3824 48.8448zM425.728 700.8768a242.432 242.432 0 0 0 186.6752 0c9.6768-3.9936 18.688 7.7824 13.824 18.3808a115.6096 115.6096 0 0 1-107.52 67.5328c-44.7488 0-84.992-16.2304-106.5984-67.2256-4.4032-10.8544 4.096-22.5792 13.6192-18.688z" fill="#FFDE73" p-id="2632"></path><path d="M976.128 445.7984a95.5392 95.5392 0 0 0-65.6384-90.4704h-0.256a2.8672 2.8672 0 0 0 0-0.6144 401.9712 401.9712 0 0 0-97.28-174.08 411.392 411.392 0 0 0-251.4944-128.4096 400.64 400.64 0 0 0-229.9392 36.1472C217.856 143.36 142.4896 233.0624 107.52 355.1744A94.3616 94.3616 0 0 0 41.9328 444.2112c-0.7168 53.7088-0.7168 98.5088 0 141.0048a95.232 95.232 0 0 0 34.4576 71.68 98.9184 98.9184 0 0 0 80.1792 20.8384 90.3168 90.3168 0 0 0 34.304-13.824 334.4896 334.4896 0 0 0 110.1312 125.0304 423.936 423.936 0 0 0 46.4896 26.4192c5.12 2.6112 10.24 5.12 15.36 7.9872a28.2112 28.2112 0 0 0 13.5168 3.2256 44.5952 44.5952 0 0 0 6.1952-0.4608h0.4096a22.8864 22.8864 0 0 0 21.1456-30.72l-0.3072-1.024a34.0992 34.0992 0 0 0-7.6288-14.9504 72.8064 72.8064 0 0 0-10.24-9.0112c-1.0752-0.8192-2.1504-1.6384-3.2256-2.56-53.2992-45.3632-80.2816-99.3792-82.5856-165.2736-1.024-30.1056 13.9264-49.5104 42.1376-54.6304 20.48-3.7376 40.96-5.4272 63.1808-7.2192 10.24-0.8192 20.1216-1.6384 30.1568-2.6624A397.4656 397.4656 0 0 0 560.4352 506.88c46.3872-20.8896 73.5232-51.2 82.5856-92.672a260.7104 260.7104 0 0 1 40.4992 81.92c32.2048 112.3328 21.8112 193.536-33.5872 263.2704a32.1536 32.1536 0 0 0-6.4 19.6608v0.7168a23.1936 23.1936 0 0 0 6.7072 20.48 22.784 22.784 0 0 0 20.48 5.9904h1.0752a35.84 35.84 0 0 0 15.36-4.8128 349.696 349.696 0 0 0 90.5216-79.4624 361.8816 361.8816 0 0 0 41.984-66.56 178.4832 178.4832 0 0 0 36.5568 17.7152c-16.64 47.9232-83.456 186.2656-302.5408 200.0896a62.5664 62.5664 0 1 0-2.5088 46.08c154.9824-8.3456 242.5344-73.728 289.024-128a317.44 317.44 0 0 0 63.0784-114.0736 60.7744 60.7744 0 0 0 19.5584-8.0896c34.816-22.1184 52.1728-50.0736 53.0944-85.4016 1.3824-48.896 0.8704-97.3312 0.2048-137.9328z m-46.08 136.3456c-0.512 19.8656-9.728 33.6896-31.744 47.7184-16.2816 10.24-55.7056-12.9536-73.1648-27.7504a23.04 23.04 0 0 0-36.4032 9.1648 317.44 317.44 0 0 1-46.8992 81.6128c-3.0208 3.7376-6.0416 7.424-9.216 11.008 27.8528-81.2544 12.2368-161.4848-4.6592-220.5184a309.4528 309.4528 0 0 0-56.8832-108.6464 87.3472 87.3472 0 0 0-19.3024-16.6912c-2.0992-1.4336-4.1472-2.8672-6.0928-4.4032a23.0912 23.0912 0 0 0-35.84 10.24c-0.768 2.1504-1.7408 4.2496-2.6624 6.4a79.8208 79.8208 0 0 0-7.3728 23.7056c-3.5328 32.4096-21.4528 54.2208-58.1632 70.7584-31.6416 14.2848-66.56 22.9888-110.5408 27.4432-9.728 1.024-19.5072 1.792-29.2864 2.6112-22.1184 1.792-44.9536 3.6864-67.6352 7.7824-51.2 9.3184-81.92 48.2304-79.9232 101.5808a262.0416 262.0416 0 0 0 26.0608 107.2128 291.4816 291.4816 0 0 1-56.32-85.7088c-0.9216-2.048-1.9968-4.0448-3.328-6.4512-0.4096-0.8192-0.9216-1.6896-1.4336-2.6624a22.8864 22.8864 0 0 0-17.2032-12.032 21.5552 21.5552 0 0 0-3.1744 0 23.04 23.04 0 0 0-16.64 7.1168c-12.4928 13.1072-22.1184 19.2-33.2288 21.1456a52.736 52.736 0 0 1-42.8544-10.9568 48.384 48.384 0 0 1-17.7664-37.12c-0.7168-42.0352-0.7168-86.3744 0-139.6224a48.0256 48.0256 0 0 1 35.84-46.5408 38.3488 38.3488 0 0 0 27.1872-28.0064c30.72-109.9776 98.4064-190.8736 200.704-240.64a355.84 355.84 0 0 1 203.9296-31.9488 366.336 366.336 0 0 1 223.7952 114.4832 356.1472 356.1472 0 0 1 86.1696 154.3168 43.4176 43.4176 0 0 0 30.0032 32.3072 50.0736 50.0736 0 0 1 34.1504 47.4624c0.5632 40.3456 1.0752 87.9616-0.2048 135.6288z" fill="#474747" p-id="2633"></path><path d="M513.2288 131.8912c-215.04 0-301.4144 199.68-304.9984 207.9232a23.04 23.04 0 0 0 42.496 17.92c0.768-1.792 77.824-179.7632 262.5024-179.7632 183.4496 0 256 180.0704 259.1744 187.6992a23.0912 23.0912 0 0 0 21.504 14.7456 22.528 22.528 0 0 0 8.2944-1.5872 23.04 23.04 0 0 0 13.1584-29.7984c-3.4304-8.9088-86.784-217.1392-302.1312-217.1392zM614.9632 715.3664a10.6496 10.6496 0 0 0-13.1072-14.8992 266.24 266.24 0 0 1-176.896 0.256 10.5984 10.5984 0 0 0-12.8512 14.8992c20.48 41.3696 58.5728 54.4768 100.9664 54.4768 41.5744 0 82.3296-18.1248 101.888-54.7328z" fill="#474747" p-id="2634"></path></svg>